<svg width="175" height="204" viewBox="0 0 175 204" fill="none" xmlns="http://www.w3.org/2000/svg">
<g clip-path="url(#clip0_59261_93578)">
<path d="M174.869 180.698H127.969V180.091C140.246 180.091 152.021 175.212 160.703 166.527C169.385 157.843 174.262 146.064 174.262 133.783V101.041H174.869V180.698Z" fill="#F2F2F2"/>
<path d="M46.902 62.3579C45.6552 62.833 44.382 63.2358 43.0889 63.5642C41.3807 63.9806 40.4162 64.1736 38.7675 63.5336C38.7096 63.5111 38.6543 63.4889 38.6022 63.467C35.4771 62.1379 32.8057 59.9286 30.9132 57.1082C29.0206 54.2878 27.9885 50.9779 27.9426 47.5813C27.9343 47.4648 27.9343 47.3423 27.9343 47.2228C27.9327 46.6471 27.9602 46.0718 28.0167 45.4989C28.089 44.7186 28.2138 43.944 28.3903 43.1804L28.3738 43.1774C27.0389 41.8121 26.5253 39.9417 26.6956 38.0625C26.8123 36.7884 27.2165 35.5574 27.8778 34.4623C28.5391 33.3673 29.4403 32.4366 30.5134 31.7405C32.1952 30.6828 34.0914 30.0132 36.0643 29.7805C36.5941 29.7194 37.1268 29.6885 37.6601 29.6879H42.6699C43.7046 29.4456 44.7558 29.2798 45.8148 29.1919H45.823C55.9059 28.3554 63.8573 35.0419 63.1157 43.1774C63.1102 43.1864 63.102 43.1954 63.0965 43.2043C62.8823 43.5539 62.6928 43.8855 62.5252 44.2022C62.3632 44.498 62.2258 44.7818 62.1077 45.0507C61.1876 47.1302 65.5602 79.3928 63.9919 79.8828C63.0993 80.1606 59.5012 56.1531 60.1466 60.7183C60.9597 66.4457 51.5471 60.6403 46.902 62.3579Z" fill="#2F2E41"/>
<path d="M62.0895 120.679L76.0663 150.464L22.3008 145.017L33.5241 116.424L62.0895 120.679Z" fill="#FFB6B6"/>
<path d="M90.1453 180.397C80.7958 183.51 70.943 184.83 61.1041 184.288L56.8256 177.347C56.8256 177.347 56.6465 179.932 56.3792 183.884C51.6956 183.341 47.0731 182.36 42.5722 180.955C34.0365 178.285 26.0353 174.148 17.9248 170.333C16.282 160.538 15.6656 145.432 24.7478 136.639L73.6327 145.599C73.6327 145.599 81.4761 151.468 79.3778 153.57C77.2796 155.668 76.9547 155.343 78.3333 156.722C79.7118 158.101 82.6907 159.945 82.721 161.151C82.7332 161.622 86.0764 170.16 90.1453 180.397Z" fill="#2F2E41"/>
<path d="M53.5539 63.123L41.7434 63.9473L34.1099 71.326L31.4365 71.8033C29.0334 72.2319 26.8711 73.5277 25.3596 75.445C23.8481 77.3623 23.0925 79.7678 23.236 82.2053C23.7859 91.525 25.0172 105.45 27.5906 109.968C31.581 116.974 34.8769 114.776 31.581 116.974C28.285 119.172 26.0722 117.445 27.5906 120.918C29.109 124.392 25.5384 128.847 25.5384 128.847L24.117 130.269L25.6246 130.887L73.6612 137.14C73.6612 137.14 69.5076 118.459 72.1052 113.87C74.7028 109.281 81.001 95.409 75.38 89.9812L69.8839 70.6343L60.4301 67.8451L53.5539 63.123Z" fill="#00A18E"/>
<path d="M125.047 139.795C124.257 139.77 123.482 139.573 122.775 139.219C122.068 138.865 121.446 138.361 120.953 137.743C120.46 137.124 120.106 136.406 119.918 135.638C119.729 134.87 119.71 134.07 119.861 133.293L97.3281 118.028L100.017 110.756L126.647 129.082C127.935 129.433 129.049 130.245 129.778 131.363C130.507 132.482 130.801 133.829 130.604 135.149C130.407 136.47 129.732 137.672 128.708 138.528C127.684 139.385 126.382 139.835 125.047 139.795Z" fill="#FFB6B6"/>
<path d="M61.4032 69.7205L58.1289 71.0174L75.5954 105.141L111.754 129.796L116.966 120.984L89.4419 97.2023L78.4224 76.062C76.8716 73.0869 74.2738 70.7921 71.1306 69.6209C67.9874 68.4498 64.5218 68.4852 61.4032 69.7205Z" fill="#00A18E"/>
<path d="M47.0312 60.1207C53.581 60.1207 58.8906 54.8094 58.8906 48.2576C58.8906 41.7058 53.581 36.3945 47.0312 36.3945C40.4815 36.3945 35.1719 41.7058 35.1719 48.2576C35.1719 54.8094 40.4815 60.1207 47.0312 60.1207Z" fill="#FFB6B6"/>
<path d="M57.3461 43.2425C57.1484 43.3468 56.9534 43.443 56.7556 43.5392C56.5496 43.6381 56.3436 43.737 56.1349 43.8304C52.166 45.63 48.9332 45.8306 46.9722 43.2425C46.9185 41.8808 46.6121 40.5411 46.0685 39.2916C46.1646 40.6879 45.7967 42.0769 45.0221 43.2425H41.0724C37.0047 45.9432 34.9173 48.4242 37.7408 57.2903C37.9248 57.8728 39.1855 78.5668 39.5453 80.1576C33.3874 77.7947 28.0754 52.7075 27.9409 46.0971C27.9326 45.9899 27.9326 45.8773 27.9326 45.7674C27.931 45.2378 27.9585 44.7086 28.015 44.1821C28.0875 43.4633 28.2123 42.7507 28.3886 42.05L28.3721 42.0473C27.7455 41.4481 27.2676 40.7108 26.9762 39.8942C26.6849 39.0776 26.5882 38.2042 26.6939 37.3436C27.7269 35.9906 29.0053 34.8442 30.4622 33.9642C31.7871 33.3225 33.168 32.8038 34.5877 32.4146C34.6234 32.4064 34.6536 32.3981 34.6893 32.3899C35.1233 32.2717 35.5682 32.1646 36.0132 32.0712C36.9301 31.8788 37.8572 31.7385 38.79 31.6508C38.8587 31.6481 38.9246 31.6426 38.985 31.6426C39.3581 31.6428 39.7243 31.7434 40.0452 31.9338C40.0479 31.9338 40.0479 31.9366 40.0534 31.9366C40.3618 32.1209 40.6175 32.3815 40.796 32.6933C40.9744 33.0051 41.0696 33.3576 41.0724 33.7169H45.4725C45.6345 33.7169 45.7966 33.7224 45.9587 33.7307C52.0864 33.9752 57.0111 36.5963 57.3269 42.6215C57.3406 42.8303 57.3461 43.0336 57.3461 43.2425Z" fill="#2F2E41"/>
<path d="M31.3325 43.7188C35.6476 43.7188 39.1456 40.2197 39.1456 35.9034C39.1456 31.587 35.6476 28.0879 31.3325 28.0879C27.0175 28.0879 23.5195 31.587 23.5195 35.9034C23.5195 40.2197 27.0175 43.7188 31.3325 43.7188Z" fill="#2F2E41"/>
<path d="M42.059 32.2883C41.1714 36.5124 36.7921 39.0387 32.6026 38.0053C30.5907 37.509 28.8583 36.2336 27.7865 34.4597C26.7147 32.6857 26.3913 30.5585 26.8874 28.5459C27.9205 24.3551 33.005 25.5633 36.3438 22.829C41.067 18.9609 43.256 26.5919 42.059 32.2883Z" fill="#2F2E41"/>
<path d="M24.6997 149.87C31.3586 122.706 44.5525 99.359 66.4035 81.0666C67.2491 79.675 68.6121 78.6758 70.1933 78.2881C71.7746 77.9005 73.445 78.156 74.8381 78.9988L126.783 110.504C128.175 111.35 129.173 112.714 129.561 114.295C129.948 115.877 129.693 117.548 128.85 118.942C120.51 146.814 108.019 171 87.1467 187.745C86.3011 189.136 84.9381 190.136 83.3569 190.523C81.7756 190.911 80.1052 190.655 78.7122 189.812L26.7669 158.307C25.3757 157.461 24.3768 156.098 23.9892 154.516C23.6017 152.934 23.8572 151.263 24.6997 149.87Z" fill="#F2F2F2"/>
<path opacity="0.2" d="M33.9324 159.024C32.5412 158.178 31.5423 156.815 31.1548 155.233C30.7673 153.651 31.0228 151.98 31.8653 150.587C38.5241 123.423 51.7181 100.076 73.569 81.7838C74.1288 80.8729 74.9192 80.126 75.8602 79.6188L74.838 78.9988C73.4449 78.1561 71.7746 77.9005 70.1933 78.2881C68.6121 78.6757 67.2491 79.6749 66.4034 81.0665C44.5525 99.3589 31.3586 122.706 24.6997 149.87C23.8572 151.263 23.6017 152.934 23.9892 154.516C24.3768 156.098 25.3757 157.461 26.7669 158.307L78.712 189.812C79.6366 190.369 80.6918 190.671 81.7706 190.688C82.8495 190.705 83.9137 190.437 84.8554 189.91L33.9324 159.024Z" fill="black"/>
<path d="M94.852 143.847L59.984 122.831C59.43 122.496 59.0316 121.955 58.8762 121.327C58.7207 120.698 58.8211 120.034 59.1551 119.479C59.4891 118.925 60.0296 118.525 60.6577 118.369C61.2858 118.213 61.9502 118.312 62.5051 118.646L97.3731 139.662C97.9257 139.997 98.3228 140.538 98.4774 141.166C98.632 141.794 98.5315 142.457 98.1979 143.011C97.8643 143.565 97.3248 143.964 96.6976 144.121C96.0704 144.278 95.4068 144.179 94.852 143.847Z" fill="white"/>
<path d="M74.5665 115.978L66.8956 111.354C66.3397 111.022 65.9387 110.482 65.7807 109.853C65.6228 109.225 65.7209 108.559 66.0535 108.003C66.3861 107.447 66.9258 107.046 67.5541 106.888C68.1823 106.73 68.8476 106.828 69.4035 107.161L69.4167 107.169L77.0877 111.793C77.6404 112.128 78.0377 112.669 78.1924 113.297C78.3471 113.925 78.2466 114.588 77.9129 115.142C77.5793 115.696 77.0396 116.095 76.4123 116.252C75.7851 116.409 75.1213 116.31 74.5665 115.978Z" fill="white"/>
<path d="M89.3083 153.048L54.4402 132.032C53.8857 131.698 53.4864 131.158 53.3301 130.529C53.1738 129.901 53.2733 129.236 53.6067 128.681C53.9402 128.126 54.4803 127.726 55.1084 127.569C55.7365 127.412 56.4011 127.511 56.9564 127.844L56.9613 127.847L91.8294 148.863C92.382 149.198 92.7791 149.739 92.9337 150.367C93.0883 150.995 92.9878 151.659 92.6542 152.212C92.3205 152.766 91.781 153.165 91.1539 153.322C90.5267 153.479 89.863 153.38 89.3083 153.048Z" fill="white"/>
<path d="M99.278 104.223C104.903 104.223 109.462 99.6615 109.462 94.0351C109.462 88.4087 104.903 83.8477 99.278 83.8477C93.6534 83.8477 89.0938 88.4087 89.0938 94.0351C89.0938 99.6615 93.6534 104.223 99.278 104.223Z" fill="#3F3D56"/>
<path d="M81.7243 203.197C93.7461 203.197 103.492 193.448 103.492 181.423C103.492 169.397 93.7461 159.648 81.7243 159.648C69.7026 159.648 59.957 169.397 59.957 181.423C59.957 193.448 69.7026 203.197 81.7243 203.197Z" fill="white"/>
<path d="M81.7233 203.5C77.3581 203.5 73.0909 202.205 69.4613 199.779C65.8318 197.353 63.0029 193.905 61.3324 189.871C59.6619 185.836 59.2248 181.397 60.0764 177.115C60.928 172.832 63.0301 168.898 66.1167 165.81C69.2034 162.723 73.136 160.62 77.4174 159.768C81.6987 158.916 86.1364 159.353 90.1694 161.024C94.2023 162.695 97.6494 165.525 100.075 169.156C102.5 172.786 103.794 177.055 103.794 181.421C103.788 187.275 101.46 192.887 97.3226 197.026C93.1849 201.165 87.5749 203.493 81.7233 203.5ZM81.7233 159.951C77.4782 159.951 73.3284 161.21 69.7987 163.57C66.269 165.929 63.518 169.282 61.8935 173.205C60.2689 177.129 59.8439 181.446 60.6721 185.61C61.5003 189.775 63.5445 193.601 66.5463 196.604C69.548 199.606 73.3725 201.651 77.5361 202.48C81.6996 203.308 86.0152 202.883 89.9372 201.258C93.8592 199.633 97.2113 196.881 99.5698 193.35C101.928 189.819 103.187 185.668 103.187 181.421C103.181 175.729 100.917 170.272 96.8933 166.247C92.8694 162.222 87.4138 159.958 81.7233 159.951Z" fill="#3F3D56"/>
<path d="M78.7514 192.755C78.3755 192.755 78.0048 192.668 77.6686 192.499C77.3324 192.331 77.04 192.087 76.8145 191.786L70.8761 183.866C70.685 183.611 70.5459 183.321 70.4668 183.013C70.3876 182.705 70.37 182.384 70.4148 182.069C70.4597 181.754 70.5662 181.451 70.7282 181.177C70.8903 180.903 71.1047 180.664 71.3592 180.473C71.6137 180.282 71.9033 180.143 72.2115 180.064C72.5198 179.985 72.8405 179.968 73.1554 180.013C73.4703 180.058 73.7733 180.165 74.0469 180.327C74.3206 180.49 74.5595 180.704 74.7502 180.959L78.6353 186.141L88.6138 171.168C88.7902 170.904 89.017 170.676 89.2812 170.499C89.5454 170.322 89.8418 170.199 90.1536 170.137C90.4654 170.074 90.7864 170.074 91.0984 170.136C91.4103 170.198 91.707 170.32 91.9716 170.497C92.2362 170.673 92.4634 170.9 92.6404 171.164C92.8173 171.428 92.9405 171.725 93.0028 172.037C93.0652 172.349 93.0655 172.67 93.0038 172.982C92.9421 173.294 92.8196 173.591 92.6432 173.856L80.7663 191.676C80.5514 191.999 80.2625 192.265 79.9236 192.452C79.5848 192.64 79.2059 192.743 78.8188 192.754C78.7963 192.755 78.7739 192.755 78.7514 192.755Z" fill="#00A18E"/>
<path d="M152.022 71.0809C152.887 71.0069 153.546 70.459 153.495 69.8571C153.444 69.2552 152.701 68.8272 151.836 68.9012C150.971 68.9752 150.311 69.5231 150.363 70.125C150.414 70.7269 151.157 71.1549 152.022 71.0809Z" fill="white"/>
<path d="M161.752 67.7782C162.617 67.7042 163.277 67.1563 163.226 66.5544C163.174 65.9525 162.431 65.5245 161.566 65.5985C160.701 65.6724 160.042 66.2204 160.093 66.8223C160.145 67.4242 160.888 67.8522 161.752 67.7782Z" fill="#3F3D56"/>
<path d="M147.409 63.6532C148.274 63.5792 148.933 63.0313 148.882 62.4294C148.83 61.8275 148.087 61.3995 147.222 61.4735C146.357 61.5474 145.698 62.0954 145.749 62.6973C145.801 63.2992 146.544 63.7272 147.409 63.6532Z" fill="#FF6584"/>
<path d="M143.323 61.2609C143.695 61.1767 143.899 60.6745 143.778 60.1392C143.657 59.6039 143.257 59.2381 142.885 59.3222C142.513 59.4064 142.309 59.9086 142.43 60.4439C142.551 60.9793 142.951 61.345 143.323 61.2609Z" fill="#E6E6E6"/>
<path d="M140.417 55.4503C140.789 55.3662 140.993 54.864 140.872 54.3287C140.751 53.7933 140.351 53.4276 139.979 53.5117C139.606 53.5959 139.403 54.098 139.524 54.6334C139.645 55.1687 140.044 55.5345 140.417 55.4503Z" fill="#3F3D56"/>
<path d="M154.362 63.6085C154.734 63.5244 154.938 63.0222 154.817 62.4869C154.696 61.9515 154.296 61.5858 153.924 61.6699C153.552 61.7541 153.348 62.2562 153.469 62.7916C153.59 63.3269 153.99 63.6927 154.362 63.6085Z" fill="#E6E6E6"/>
<path d="M150.112 67.1398C150.484 67.0556 150.688 66.5534 150.567 66.0181C150.446 65.4828 150.046 65.117 149.674 65.2012C149.302 65.2853 149.098 65.7875 149.219 66.3228C149.34 66.8582 149.74 67.2239 150.112 67.1398Z" fill="#FF6584"/>
<path d="M157.854 70.0148C158.226 69.9306 158.43 69.4284 158.309 68.8931C158.188 68.3578 157.789 67.992 157.416 68.0762C157.044 68.1603 156.84 68.6625 156.961 69.1978C157.082 69.7332 157.482 70.0989 157.854 70.0148Z" fill="#3F3D56"/>
<path d="M111.84 26.0735C111.988 25.4879 111.426 24.8403 110.584 24.627C109.743 24.4136 108.94 24.7154 108.792 25.301C108.644 25.8866 109.206 26.5343 110.047 26.7476C110.889 26.9609 111.691 26.6591 111.84 26.0735Z" fill="white"/>
<path d="M101.566 26.0071C101.714 25.4215 101.152 24.7739 100.311 24.5605C99.4694 24.3472 98.667 24.649 98.5186 25.2346C98.3703 25.8202 98.9322 26.4679 99.7737 26.6812C100.615 26.8945 101.418 26.5927 101.566 26.0071Z" fill="#3F3D56"/>
<path d="M113.769 34.6028C113.918 34.0172 113.356 33.3696 112.514 33.1563C111.673 32.9429 110.87 33.2447 110.722 33.8303C110.573 34.4159 111.135 35.0636 111.977 35.2769C112.818 35.4902 113.621 35.1884 113.769 34.6028Z" fill="#FF6584"/>
<path d="M116.164 37.8183C116.225 37.2728 115.966 36.7963 115.587 36.7539C115.208 36.7115 114.851 37.1193 114.79 37.6647C114.729 38.2102 114.987 38.6867 115.366 38.7291C115.746 38.7715 116.103 38.3637 116.164 37.8183Z" fill="#E6E6E6"/>
<path d="M117.007 44.2597C117.068 43.7143 116.81 43.2377 116.431 43.1953C116.052 43.1529 115.695 43.5607 115.634 44.1062C115.573 44.6516 115.831 45.1281 116.21 45.1705C116.59 45.2129 116.946 44.8051 117.007 44.2597Z" fill="#3F3D56"/>
<path d="M106.503 31.9843C106.564 31.4389 106.306 30.9623 105.927 30.9199C105.548 30.8775 105.191 31.2853 105.13 31.8308C105.069 32.3762 105.327 32.8527 105.706 32.8951C106.086 32.9375 106.443 32.5297 106.503 31.9843Z" fill="#E6E6E6"/>
<path d="M111.675 30.0409C111.736 29.4955 111.478 29.019 111.099 28.9766C110.72 28.9342 110.363 29.342 110.302 29.8874C110.241 30.4328 110.499 30.9094 110.878 30.9518C111.258 30.9942 111.614 30.5864 111.675 30.0409Z" fill="#FF6584"/>
<path d="M105.304 24.789C105.365 24.2436 105.107 23.767 104.728 23.7246C104.348 23.6822 103.992 24.09 103.931 24.6355C103.87 25.1809 104.128 25.6574 104.507 25.6998C104.886 25.7422 105.243 25.3344 105.304 24.789Z" fill="#3F3D56"/>
<path d="M0.740116 80.1568H0.132812V0.5H47.0334V1.10749C34.7557 1.10749 22.9808 5.98634 14.2991 14.6707C5.61742 23.3551 0.740116 35.1337 0.740116 47.4153V80.1568Z" fill="#F2F2F2"/>
<path d="M27.9374 150.157C27.1612 149.839 26.4634 149.356 25.8922 148.742C25.321 148.127 24.89 147.396 24.6291 146.599C24.3682 145.801 24.2836 144.957 24.3811 144.123C24.4786 143.29 24.7559 142.488 25.1938 141.772L8.46094 118.243L13.829 112.014L33.4985 140.104C34.6479 140.931 35.4541 142.151 35.7643 143.533C36.0745 144.915 35.8673 146.362 35.1818 147.602C34.4963 148.841 33.3802 149.785 32.045 150.256C30.7098 150.727 29.2483 150.692 27.9374 150.157Z" fill="#FFB6B6"/>
<path d="M28.3238 75.596C27.4772 75.0977 26.4809 74.9176 25.5136 75.088C24.5462 75.2583 23.6713 75.768 23.0458 76.5255L0.4375 108.154L21.3895 137.922L29.5881 129.113L16.8347 109.066L33.784 92.9228C35.1769 89.8705 35.3896 86.4102 34.3812 83.2102C33.3727 80.0102 31.2147 77.2974 28.3238 75.596Z" fill="#00A18E"/>
</g>
<defs>
<clipPath id="clip0_59261_93578">
<rect width="174.738" height="203" fill="white" transform="translate(0.132812 0.5)"/>
</clipPath>
</defs>
</svg>
