<svg width="50" height="50" viewBox="0 0 50 50" fill="none" xmlns="http://www.w3.org/2000/svg">
<g clip-path="url(#clip0_6768_223206)">
<path d="M35.6377 35.6243H23.1377V18.707L33.946 24.6281L35.6377 35.6243Z" fill="#2F2E41"/>
<path d="M25.4475 32.6392C29.9296 32.6392 33.563 29.0058 33.563 24.5237C33.563 20.0416 29.9296 16.4082 25.4475 16.4082C20.9655 16.4082 17.332 20.0416 17.332 24.5237C17.332 29.0058 20.9655 32.6392 25.4475 32.6392Z" fill="#FFB6B6"/>
<path d="M20.7882 33.8389L20.4215 30.1327L27.7431 28.7637L32.0664 39.29L24.5476 47.9366L19.1904 37.4103L20.7882 33.8389Z" fill="#FFB6B6"/>
<path d="M42.9547 42.3958C42.8636 42.4908 42.7705 42.5847 42.6775 42.6778C42.3824 42.9729 42.0816 43.2596 41.7743 43.5378C37.169 47.7144 31.2602 50.0002 24.9998 50.0002C19.2282 50.0002 13.7555 48.0575 9.32785 44.4814C9.32504 44.4795 9.32316 44.4776 9.32033 44.4748C9.18594 44.3667 9.05342 44.2567 8.9209 44.1449C8.94439 44.0772 8.96977 44.0105 8.99515 43.9447C10.419 40.2351 13.2311 38.4203 14.9378 37.6261C15.7837 37.2323 16.3579 37.0885 16.3579 37.0885L18.3617 33.4795L19.7724 36.1111L20.8119 38.0509L25.0769 46.0086L28.7564 36.847L29.8965 34.0067L30.1888 33.2793L31.5788 34.3611L32.8946 35.3846L35.544 35.9691L37.6935 36.4438L40.6126 37.0885C41.7931 38.05 42.5111 39.8789 42.9124 42.1515C42.9275 42.2323 42.9416 42.3141 42.9547 42.3958Z" fill="#00A18E"/>
<path d="M21.1788 15.3002C22.1673 13.6397 23.9829 12.5004 25.9081 12.3324C27.8333 12.1645 29.8187 12.9723 31.0798 14.4366C31.8313 15.3092 32.324 16.3778 33.0565 17.2664C34.6329 19.1786 37.3208 20.2966 38.0095 22.6772C38.31 23.716 38.1602 24.825 38.0082 25.8957C37.8779 26.8134 37.7475 27.731 37.6172 28.6487C37.5158 29.3629 37.4185 30.1158 37.6863 30.7855C38.0005 31.5713 38.7523 32.086 39.2385 32.7787C40.0656 33.9574 40.0051 35.6832 39.0975 36.8011C38.7039 37.2859 38.1821 37.6516 37.7694 38.1203C37.3567 38.589 37.0506 39.2298 37.2235 39.8299C37.5546 40.9795 39.3574 41.2551 39.5551 42.435C39.6562 43.0382 39.2395 43.6406 38.6936 43.9164C38.1477 44.1922 37.5051 44.2003 36.898 44.1265C34.5903 43.846 32.4537 42.4041 31.3302 40.369C30.2066 38.3339 30.1248 35.7575 31.117 33.6553C31.9318 31.9286 33.4464 30.4029 33.4299 28.4937C33.4209 27.4536 32.9438 26.4821 32.4773 25.5524C31.5225 23.6496 30.5677 21.7468 29.6129 19.844C29.1014 18.8248 28.5079 17.7264 27.4549 17.2885C26.6411 16.9501 25.7177 17.0814 24.8473 17.2198C23.9769 17.3582 23.0549 17.4929 22.2387 17.1604C21.4225 16.8279 20.8057 15.8399 21.1946 15.049" fill="#2F2E41"/>
<path d="M22.601 15.387C21.0331 14.8709 19.2742 15.6994 18.2127 16.9636C17.1512 18.2277 16.6363 19.8495 16.1458 21.4256C15.8648 22.3284 15.5839 23.2312 15.3029 24.134C15.0386 24.9833 14.7743 25.8325 14.51 26.6818C14.1991 27.6807 13.8857 28.742 14.1408 29.7566C14.3253 30.4901 14.7999 31.1561 14.8101 31.9124C14.8208 32.7024 14.326 33.396 13.8925 34.0565C13.4589 34.717 13.0519 35.5017 13.2585 36.2643C13.5727 37.4242 15.1854 38.0618 15.097 39.2603C15.0675 39.6603 14.8362 40.0302 14.8404 40.4313C14.8457 40.9415 15.2452 41.3824 15.7132 41.5857C16.1813 41.789 16.7078 41.8 17.218 41.7911C18.783 41.7635 20.3451 41.5777 21.8728 41.2373C22.4606 41.1063 23.0584 40.9456 23.5476 40.5946C24.0369 40.2435 24.4019 39.6618 24.3382 39.063C24.239 38.1298 23.2357 37.6004 22.7294 36.8104C22.2321 36.0343 22.2436 35.051 22.0292 34.1546C21.7344 32.9226 21.0066 31.847 20.4602 30.7041C18.406 26.4075 19.1251 20.9309 22.2188 17.3102C22.4924 16.9901 22.7912 16.6681 22.9054 16.2627C23.0195 15.8574 22.8724 15.341 22.4759 15.1992" fill="#2F2E41"/>
<path d="M42.6776 7.32237C37.9558 2.60056 31.6776 0 25 0C18.3224 0 12.0442 2.60056 7.32237 7.32237C2.60056 12.0442 0 18.3224 0 25C0 31.0949 2.16635 36.8571 6.13628 41.4069C6.51504 41.8421 6.91072 42.266 7.32237 42.6776C7.41917 42.7744 7.51692 42.8712 7.6156 42.9652C7.87876 43.2199 8.14662 43.469 8.41918 43.7105C8.58459 43.8581 8.75188 44.0028 8.92105 44.1447C9.05357 44.2566 9.18609 44.3665 9.32049 44.4746C9.32331 44.4774 9.32519 44.4793 9.32801 44.4812C13.7556 48.0573 19.2284 50 25 50C31.2603 50 37.1692 47.7143 41.7744 43.5376C42.0818 43.2594 42.3825 42.9727 42.6776 42.6776C42.7707 42.5846 42.8637 42.4906 42.9549 42.3957C43.2086 42.1344 43.4549 41.8684 43.6955 41.5987C47.7716 37.0197 50 31.1814 50 25C50 18.3224 47.3994 12.0442 42.6776 7.32237ZM43.6344 41.3647C43.3994 41.6316 43.1588 41.8947 42.9126 42.1513C42.5291 42.5508 42.1335 42.938 41.7246 43.3111C41.5695 43.4539 41.4126 43.593 41.2538 43.7312C39.6494 45.1269 37.8637 46.3186 35.938 47.2679C35.2622 47.6015 34.5695 47.9051 33.8609 48.1767C31.1081 49.2331 28.1203 49.812 25 49.812C21.9887 49.812 19.1015 49.2726 16.4295 48.2857C15.3327 47.8816 14.2726 47.4013 13.2547 46.8515C13.1053 46.7707 12.9568 46.6889 12.8092 46.6053C12.0329 46.1654 11.282 45.6851 10.5611 45.1663C10.0226 44.7801 9.5 44.3731 8.9953 43.9445C8.81861 43.7951 8.6438 43.6438 8.47181 43.4887C8.19173 43.2397 7.91729 42.9831 7.64944 42.7199C7.14192 42.2227 6.65696 41.7049 6.19361 41.1663C2.45207 36.8205 0.18797 31.1701 0.18797 25C0.18797 11.3186 11.3186 0.18797 25 0.18797C38.6814 0.18797 49.812 11.3186 49.812 25C49.812 31.265 47.4784 36.9944 43.6344 41.3647Z" fill="#3F3D56"/>
</g>
<defs>
<clipPath id="clip0_6768_223206">
<rect width="50" height="50" fill="white"/>
</clipPath>
</defs>
</svg>
