<svg width="25" height="24" viewBox="0 0 25 24" fill="none" xmlns="http://www.w3.org/2000/svg">
<path d="M19.8399 14.49L18.8399 12.83C18.6299 12.46 18.4399 11.76 18.4399 11.35V8.82C18.4399 6.47 17.0599 4.44 15.0699 3.49C14.5499 2.57 13.5899 2 12.4899 2C11.3999 2 10.4199 2.59 9.89994 3.52C7.94994 4.49 6.59994 6.5 6.59994 8.82V11.35C6.59994 11.76 6.40994 12.46 6.19994 12.82L5.18994 14.49C4.78994 15.16 4.69994 15.9 4.94994 16.58C5.18994 17.25 5.75994 17.77 6.49994 18.02C8.43994 18.68 10.4799 19 12.5199 19C14.5599 19 16.5999 18.68 18.5399 18.03C19.2399 17.8 19.7799 17.27 20.0399 16.58C20.2999 15.89 20.2299 15.13 19.8399 14.49Z" fill="#171D1B"/>
<path d="M15.3299 20.01C14.9099 21.17 13.7999 22 12.4999 22C11.7099 22 10.9299 21.68 10.3799 21.11C10.0599 20.81 9.81993 20.41 9.67993 20C9.80993 20.02 9.93993 20.03 10.0799 20.05C10.3099 20.08 10.5499 20.11 10.7899 20.13C11.3599 20.18 11.9399 20.21 12.5199 20.21C13.0899 20.21 13.6599 20.18 14.2199 20.13C14.4299 20.11 14.6399 20.1 14.8399 20.07C14.9999 20.05 15.1599 20.03 15.3299 20.01Z" fill="#171D1B"/>
</svg>
