<svg width="50" height="34" viewBox="0 0 50 34" fill="none" xmlns="http://www.w3.org/2000/svg">
<g clip-path="url(#clip0_6768_223222)">
<path d="M-2.60666 32.0448C-2.40457 32.386 -2.13094 32.6783 -1.80504 32.9011C-1.47914 33.1239 -1.1089 33.2717 -0.720394 33.3341C-0.331892 33.3965 0.0654209 33.3721 0.443562 33.2624C0.821704 33.1528 1.17147 32.9607 1.46824 32.6996L9.76302 37.51L9.45388 32.4953L1.62441 28.696C1.15756 28.221 0.53461 27.9356 -0.12641 27.894C-0.78743 27.8523 -1.44059 28.0573 -1.96212 28.4701C-2.48366 28.8829 -2.83733 29.4748 -2.95612 30.1336C-3.07491 30.7924 -2.95057 31.4724 -2.60666 32.0448Z" fill="#FFB8B8"/>
<path d="M31.3551 14.9337C34.6141 14.9337 37.2561 12.2622 37.2561 8.96683C37.2561 5.67144 34.6141 3 31.3551 3C28.0961 3 25.4541 5.67144 25.4541 8.96683C25.4541 12.2622 28.0961 14.9337 31.3551 14.9337Z" fill="#FFB8B8"/>
<path d="M35.6195 16.4824L36.7735 18.7189L44.7551 22.3166L42.6571 42.8469L41.774 44.9729L42.2511 46.8191L41.1009 48.1817C42.2555 49.2381 42.4021 50.3439 41.774 51.4878L38.0985 52.3391C38.0985 52.3391 17.6616 54.1767 19.384 50.9753C21.2659 47.4773 21.7451 37.1467 17.5906 31.6263C14.0636 26.9396 16.7714 20.8581 16.7714 20.8581L25.1377 18.3299L28.2149 16.4824L35.6195 16.4824Z" fill="#3F3D56"/>
<path d="M33.9744 0.226574C34.0022 0.167248 34.0468 0.117657 34.1026 0.08417C34.1584 0.0506828 34.2228 0.0348278 34.2876 0.0386421C31.5861 -0.124762 28.7404 0.193628 26.4803 1.69899C25.9327 2.0637 25.4165 2.4987 24.8207 2.76326C24.7925 2.77604 24.7682 2.79595 24.7499 2.82107C24.7316 2.84619 24.7201 2.87565 24.7164 2.90661C24.7128 2.93756 24.7171 2.96895 24.7289 2.99772C24.7408 3.02649 24.7598 3.05168 24.7842 3.07082L24.8496 3.12271C24.8754 3.14319 24.8952 3.17043 24.9068 3.20148C24.9183 3.23252 24.9213 3.26618 24.9153 3.2988C24.9092 3.33141 24.8945 3.36173 24.8726 3.38646C24.8507 3.41119 24.8226 3.42938 24.7912 3.43906C24.7585 3.44914 24.7293 3.46848 24.7071 3.49477C24.6848 3.52107 24.6705 3.55324 24.6658 3.58749C24.6611 3.62175 24.6661 3.65666 24.6803 3.68811C24.6946 3.71956 24.7174 3.74624 24.7461 3.76502L25.2476 4.09278C25.2729 4.10899 25.2937 4.13136 25.3082 4.15784C25.3227 4.18431 25.3304 4.21404 25.3305 4.24429C25.3307 4.27455 25.3233 4.30435 25.3091 4.33099C25.2949 4.35762 25.2744 4.38022 25.2493 4.39671C25.2068 4.42324 25.1622 4.44611 25.1159 4.46509C25.0871 4.47602 25.0616 4.49427 25.0418 4.51808C25.022 4.54189 25.0086 4.57045 25.0029 4.60101C24.9972 4.63157 24.9994 4.6631 25.0093 4.69256C25.0191 4.72202 25.0363 4.74841 25.0592 4.7692C25.2763 4.9647 25.4429 5.21095 25.5444 5.48648C25.7116 5.92597 25.7416 6.40461 25.7698 6.87461C25.9426 6.19645 26.6745 5.79725 27.3659 5.75669C28.0573 5.71613 28.7317 5.9468 29.4045 6.11262C30.8701 6.47274 32.3922 6.53194 33.8808 6.28674C33.3753 7.31247 33.8017 8.53594 34.2308 9.59667L35.6197 8.99471C37.5271 7.90596 36.1985 12.5116 35.4853 13.1438C36.9414 13.6543 40.7525 7.98893 39.5265 5.83993C38.8887 4.72205 39.3414 3.28026 38.0876 2.22004C37.4731 1.56591 36.2461 1.85665 35.6197 1.31299C35.3731 1.09901 35.7489 0.526555 35.4101 0.401797C35.2975 0.36036 33.9931 0.184811 33.9744 0.226574Z" fill="#2F2E41"/>
<path d="M23.9796 18.9062C22.8968 23.7671 20.1196 35.1166 17.302 37.4902C17.1233 37.6608 16.909 37.7887 16.675 37.8645C6.77106 40.3042 3.59766 34.0811 3.59766 34.0811C3.59766 34.0811 6.25178 32.7732 6.3191 30.2169L11.6716 31.8961L16.3375 21.2788L17.0241 20.6312L17.0279 20.6274L23.9796 18.9062Z" fill="#3F3D56"/>
<path d="M42.5549 21.7988L44.7554 22.3164C44.7554 22.3164 53.851 40.2108 51.6592 43.6204C49.4674 47.03 46.7823 58.3184 46.7823 58.3184C46.7823 58.3184 42.8109 57.52 41.2935 55.4743L44.0722 42.0861L41.2061 30.8343L42.5549 21.7988Z" fill="#3F3D56"/>
<path d="M0.805667 48.3714L0.884686 19.5515C0.886937 18.9682 1.11792 18.4096 1.52697 17.9983C1.93601 17.5869 2.48971 17.3565 3.06659 17.3574L24.5918 17.4178C25.1687 17.42 25.7211 17.6536 26.1279 18.0672C26.5347 18.4808 26.7626 19.0407 26.7617 19.624L26.6827 48.444C26.6804 49.0273 26.4494 49.5859 26.0404 49.9972C25.6313 50.4085 25.0776 50.639 24.5008 50.638L2.97551 50.5777C2.39863 50.5754 1.84621 50.3418 1.43942 49.9282C1.03264 49.5146 0.804719 48.9547 0.805667 48.3714Z" fill="#E6E6E6"/>
<path d="M2.48146 39.6708L2.53226 21.1427C2.53435 20.5964 2.75068 20.0733 3.13376 19.688C3.51685 19.3028 4.03541 19.087 4.57568 19.0879L23.0748 19.1398C23.6151 19.1419 24.1325 19.3606 24.5135 19.748C24.8944 20.1353 25.1079 20.6597 25.107 21.206L25.0367 46.8518C25.0346 47.3981 24.8183 47.9213 24.4352 48.3065C24.0521 48.6917 23.5335 48.9075 22.9932 48.9066L11.5334 48.8745C9.12684 48.865 6.82228 47.8907 5.12531 46.1652C3.42833 44.4398 2.47752 42.1042 2.48146 39.6708Z" fill="white"/>
<path d="M20.9551 27.2268H6.53051C6.30098 27.2268 6.08084 27.1346 5.91853 26.9705C5.75622 26.8064 5.66504 26.5838 5.66504 26.3517C5.66504 26.1196 5.75622 25.897 5.91853 25.7329C6.08084 25.5688 6.30098 25.4766 6.53051 25.4766H20.9551C21.1846 25.4766 21.4048 25.5688 21.5671 25.7329C21.7294 25.897 21.8206 26.1196 21.8206 26.3517C21.8206 26.5838 21.7294 26.8064 21.5671 26.9705C21.4048 27.1346 21.1846 27.2268 20.9551 27.2268Z" fill="#00A18E"/>
<path d="M9.70392 23.1917H6.53051C6.30098 23.1917 6.08084 23.0995 5.91853 22.9354C5.75622 22.7712 5.66504 22.5486 5.66504 22.3165C5.66504 22.0844 5.75622 21.8618 5.91853 21.6977C6.08084 21.5336 6.30098 21.4414 6.53051 21.4414H9.70392C9.93346 21.4414 10.1536 21.5336 10.3159 21.6977C10.4782 21.8618 10.5694 22.0844 10.5694 22.3165C10.5694 22.5486 10.4782 22.7712 10.3159 22.9354C10.1536 23.0995 9.93346 23.1917 9.70392 23.1917Z" fill="#00A18E"/>
<path d="M20.9551 31.262H6.53051C6.30098 31.262 6.08084 31.1698 5.91853 31.0057C5.75622 30.8415 5.66504 30.619 5.66504 30.3869C5.66504 30.1548 5.75622 29.9322 5.91853 29.768C6.08084 29.6039 6.30098 29.5117 6.53051 29.5117H20.9551C21.1846 29.5117 21.4048 29.6039 21.5671 29.768C21.7294 29.9322 21.8206 30.1548 21.8206 30.3869C21.8206 30.619 21.7294 30.8415 21.5671 31.0057C21.4048 31.1698 21.1846 31.262 20.9551 31.262Z" fill="#00A18E"/>
<path d="M20.9551 35.2971H6.53051C6.30098 35.2971 6.08084 35.2049 5.91853 35.0408C5.75622 34.8767 5.66504 34.6541 5.66504 34.422C5.66504 34.1899 5.75622 33.9673 5.91853 33.8032C6.08084 33.6391 6.30098 33.5469 6.53051 33.5469H20.9551C21.1846 33.5469 21.4048 33.6391 21.5671 33.8032C21.7294 33.9673 21.8206 34.1899 21.8206 34.422C21.8206 34.6541 21.7294 34.8767 21.5671 35.0408C21.4048 35.2049 21.1846 35.2971 20.9551 35.2971Z" fill="#00A18E"/>
<path d="M12.4444 10.6479C13.3472 10.6479 14.0791 9.90777 14.0791 8.99483C14.0791 8.08188 13.3472 7.3418 12.4444 7.3418C11.5415 7.3418 10.8096 8.08188 10.8096 8.99483C10.8096 9.90777 11.5415 10.6479 12.4444 10.6479Z" fill="#F2F2F2"/>
<path d="M44.0821 17.0658C44.9849 17.0658 45.7168 16.3257 45.7168 15.4128C45.7168 14.4999 44.9849 13.7598 44.0821 13.7598C43.1792 13.7598 42.4473 14.4999 42.4473 15.4128C42.4473 16.3257 43.1792 17.0658 44.0821 17.0658Z" fill="#F2F2F2"/>
</g>
<defs>
<clipPath id="clip0_6768_223222">
<rect width="55" height="67" fill="white" transform="translate(-3)"/>
</clipPath>
</defs>
</svg>
